<svg
    xmlns="http://www.w3.org/2000/svg"
    width="24"
    height="24"
    viewBox="0 -960 960 960"
    className="shrink-0 h-5 w-5 text-gray-300"
    fill="currentColor"
    >
    <path d="m323-245 157-94 157 95-42-178 138-120-182-16-71-168-71 167-182 16 138 120zm157-24L294-157q-8 5-17 4.5t-16-5.5-10.5-13-1.5-18l49-212-164-143q-8-7-9.5-15.5t.5-16.5 9-13.5 17-6.5l217-19 84-200q4-9 12-13.5t16-4.5 16 4.5 12 13.5l84 200 217 19q10 1 17 6.5t9 13.5.5 16.5T826-544L662-401l49 212q2 10-1.5 18T699-158t-16 5.5-17-4.5zm0-206"></path>
</svg>